<svg width="778" height="79" viewBox="0 0 778 79" fill="none" xmlns="http://www.w3.org/2000/svg">
<path d="M0.108734 4.73438H14.9681V64.9688H57.5775V78H0.108734V4.73438ZM64.1531 15.1406C62.7781 15.1406 61.5281 14.9531 60.4031 14.5781C59.3094 14.1719 58.3719 13.6406 57.5906 12.9844C56.8094 12.2969 56.2 11.5156 55.7625 10.6406C55.3562 9.73438 55.1531 8.78125 55.1531 7.78125C55.1531 6.75 55.3562 5.79688 55.7625 4.92188C56.2 4.01562 56.8094 3.23438 57.5906 2.57812C58.3719 1.92188 59.3094 1.40625 60.4031 1.03125C61.5281 0.625 62.7781 0.421875 64.1531 0.421875C65.5594 0.421875 66.8094 0.625 67.9031 1.03125C69.0281 1.40625 69.9812 1.92188 70.7625 2.57812C71.5437 3.23438 72.1375 4.01562 72.5437 4.92188C72.9812 5.79688 73.2 6.75 73.2 7.78125C73.2 8.78125 72.9812 9.73438 72.5437 10.6406C72.1375 11.5156 71.5437 12.2969 70.7625 12.9844C69.9812 13.6406 69.0281 14.1719 67.9031 14.5781C66.8094 14.9531 65.5594 15.1406 64.1531 15.1406ZM57.2156 22.6875H71.0906V78H57.2156V22.6875ZM75.8381 22.6875H89.7131V27.375C93.1819 25.25 96.5569 23.7812 99.8381 22.9688C103.151 22.125 106.385 21.7031 109.541 21.7031C113.947 21.7031 117.994 22.4062 121.682 23.8125C125.369 25.2188 128.526 27.3438 131.151 30.1875C133.182 28.625 135.182 27.3125 137.151 26.25C139.119 25.1562 141.088 24.2812 143.057 23.625C145.026 22.9375 147.026 22.4531 149.057 22.1719C151.088 21.8594 153.182 21.7031 155.338 21.7031C159.869 21.7031 163.979 22.3281 167.666 23.5781C171.354 24.7969 174.494 26.625 177.088 29.0625C179.713 31.5 181.729 34.5469 183.135 38.2031C184.572 41.8281 185.291 46.0312 185.291 50.8125V78H171.463V53.0625C171.463 50.0312 171.026 47.3281 170.151 44.9531C169.307 42.5469 168.104 40.5312 166.541 38.9062C165.01 37.25 163.166 36 161.01 35.1562C158.885 34.2812 156.541 33.8438 153.979 33.8438C152.572 33.8438 151.135 33.9844 149.666 34.2656C148.197 34.5156 146.76 34.9219 145.354 35.4844C143.979 36.0469 142.682 36.7656 141.463 37.6406C140.244 38.4844 139.182 39.4844 138.276 40.6406V78H124.447V53.0625C124.447 50.0312 124.01 47.3281 123.135 44.9531C122.291 42.5469 121.088 40.5312 119.526 38.9062C117.994 37.25 116.135 36 113.947 35.1562C111.791 34.2812 109.416 33.8438 106.822 33.8438C105.229 33.8438 103.619 34.0156 101.994 34.3594C100.401 34.6719 98.8537 35.125 97.3537 35.7188C95.885 36.3125 94.4944 37.0312 93.1819 37.875C91.9006 38.7188 90.7444 39.6719 89.7131 40.7344V78H75.8381V22.6875ZM186.007 50.3438C186.007 46.375 186.804 42.6562 188.398 39.1875C190.023 35.7188 192.32 32.6875 195.289 30.0938C198.289 27.5 201.898 25.4531 206.117 23.9531C210.367 22.4531 215.132 21.7031 220.414 21.7031C225.695 21.7031 230.445 22.4531 234.664 23.9531C238.914 25.4531 242.523 27.5 245.492 30.0938C248.492 32.6875 250.789 35.7188 252.382 39.1875C254.007 42.6562 254.82 46.375 254.82 50.3438C254.82 54.3125 254.007 58.0312 252.382 61.5C250.789 64.9688 248.492 68 245.492 70.5938C242.523 73.1875 238.914 75.2344 234.664 76.7344C230.445 78.2344 225.695 78.9844 220.414 78.9844C215.132 78.9844 210.367 78.2344 206.117 76.7344C201.898 75.2344 198.289 73.1875 195.289 70.5938C192.32 68 190.023 64.9688 188.398 61.5C186.804 58.0312 186.007 54.3125 186.007 50.3438ZM200.586 50.3438C200.586 52.5625 201.023 54.6719 201.898 56.6719C202.804 58.6406 204.101 60.3906 205.789 61.9219C207.507 63.4219 209.586 64.625 212.023 65.5312C214.492 66.4062 217.289 66.8438 220.414 66.8438C223.539 66.8438 226.32 66.4062 228.757 65.5312C231.226 64.625 233.304 63.4219 234.992 61.9219C236.711 60.3906 238.007 58.6406 238.882 56.6719C239.789 54.6719 240.242 52.5625 240.242 50.3438C240.242 48.125 239.789 46.0156 238.882 44.0156C238.007 42.0156 236.711 40.2656 234.992 38.7656C233.304 37.2344 231.226 36.0312 228.757 35.1562C226.32 34.25 223.539 33.7969 220.414 33.7969C217.289 33.7969 214.492 34.25 212.023 35.1562C209.586 36.0312 207.507 37.2344 205.789 38.7656C204.101 40.2656 202.804 42.0156 201.898 44.0156C201.023 46.0156 200.586 48.125 200.586 50.3438ZM255.396 22.6406H269.224V49.6406C269.224 52.2031 269.505 54.5469 270.067 56.6719C270.63 58.7656 271.583 60.5625 272.927 62.0625C274.302 63.5625 276.114 64.7344 278.364 65.5781C280.646 66.3906 283.474 66.7969 286.849 66.7969C288.442 66.7969 290.052 66.625 291.677 66.2812C293.333 65.9375 294.911 65.4688 296.411 64.875C297.911 64.25 299.302 63.5156 300.583 62.6719C301.896 61.8281 303.021 60.9062 303.958 59.9062V22.6406H317.833V78H303.958V73.2656C300.552 75.2969 297.13 76.75 293.692 77.625C290.255 78.5 286.989 78.9375 283.896 78.9375C278.833 78.9375 274.489 78.3281 270.864 77.1094C267.271 75.8906 264.317 74.125 262.005 71.8125C259.724 69.4688 258.052 66.6094 256.989 63.2344C255.927 59.8281 255.396 55.9531 255.396 51.6094V22.6406ZM324.221 61.0312C327.971 63.2812 332.096 64.9375 336.596 66C341.096 67.0625 345.706 67.5938 350.424 67.5938C353.612 67.5938 356.268 67.375 358.393 66.9375C360.518 66.5 362.221 65.9375 363.502 65.25C364.784 64.5625 365.69 63.7812 366.221 62.9062C366.752 62.0312 367.018 61.1406 367.018 60.2344C367.018 58.9219 366.44 57.7969 365.284 56.8594C364.159 55.9219 362.284 55.4531 359.659 55.4531C358.44 55.4531 357.127 55.5312 355.721 55.6875C354.315 55.8438 352.831 56.0156 351.268 56.2031C349.737 56.3594 348.127 56.5156 346.44 56.6719C344.784 56.8281 343.096 56.9062 341.377 56.9062C337.627 56.9062 334.424 56.5 331.768 55.6875C329.143 54.875 327.002 53.7656 325.346 52.3594C323.69 50.9531 322.487 49.2969 321.737 47.3906C320.987 45.4531 320.612 43.375 320.612 41.1562C320.612 38.3438 321.268 35.75 322.581 33.375C323.893 31 325.768 28.9531 328.206 27.2344C330.643 25.4844 333.581 24.125 337.018 23.1562C340.487 22.1875 344.346 21.7031 348.596 21.7031C350.815 21.7031 353.127 21.8438 355.534 22.125C357.971 22.375 360.362 22.7188 362.706 23.1562C365.049 23.5938 367.299 24.1094 369.456 24.7031C371.612 25.2656 373.518 25.875 375.174 26.5312L370.815 37.3125C367.284 36 363.752 34.9688 360.221 34.2188C356.721 33.4375 353.112 33.0469 349.393 33.0469C346.799 33.0469 344.596 33.25 342.784 33.6562C341.002 34.0312 339.549 34.5469 338.424 35.2031C337.299 35.8281 336.471 36.5625 335.94 37.4062C335.44 38.2188 335.19 39.0781 335.19 39.9844C335.19 40.6406 335.315 41.2344 335.565 41.7656C335.846 42.2969 336.284 42.7656 336.877 43.1719C337.502 43.5469 338.299 43.8438 339.268 44.0625C340.268 44.25 341.487 44.3438 342.924 44.3438C344.237 44.3438 345.627 44.2656 347.096 44.1094C348.565 43.9531 350.096 43.7969 351.69 43.6406C353.284 43.4531 354.924 43.2812 356.612 43.125C358.331 42.9688 360.081 42.8906 361.862 42.8906C365.174 42.8906 368.065 43.2812 370.534 44.0625C373.034 44.8438 375.096 45.9375 376.721 47.3438C378.346 48.75 379.565 50.4062 380.377 52.3125C381.19 54.2188 381.596 56.2969 381.596 58.5469C381.596 61.4531 380.924 64.1562 379.581 66.6562C378.237 69.1562 376.237 71.3281 373.581 73.1719C370.924 74.9844 367.612 76.4062 363.643 77.4375C359.706 78.4688 355.143 78.9844 349.956 78.9844C346.768 78.9844 343.69 78.7812 340.721 78.375C337.752 78 334.924 77.4844 332.237 76.8281C329.549 76.1406 327.018 75.3438 324.643 74.4375C322.299 73.5312 320.159 72.5625 318.221 71.5312L324.221 61.0312ZM387.984 15.1406C386.609 15.1406 385.359 14.9531 384.234 14.5781C383.141 14.1719 382.203 13.6406 381.422 12.9844C380.641 12.2969 380.031 11.5156 379.594 10.6406C379.188 9.73438 378.984 8.78125 378.984 7.78125C378.984 6.75 379.188 5.79688 379.594 4.92188C380.031 4.01562 380.641 3.23438 381.422 2.57812C382.203 1.92188 383.141 1.40625 384.234 1.03125C385.359 0.625 386.609 0.421875 387.984 0.421875C389.391 0.421875 390.641 0.625 391.734 1.03125C392.859 1.40625 393.812 1.92188 394.594 2.57812C395.375 3.23438 395.969 4.01562 396.375 4.92188C396.812 5.79688 397.031 6.75 397.031 7.78125C397.031 8.78125 396.812 9.73438 396.375 10.6406C395.969 11.5156 395.375 12.2969 394.594 12.9844C393.812 13.6406 392.859 14.1719 391.734 14.5781C390.641 14.9531 389.391 15.1406 387.984 15.1406ZM381.047 22.6875H394.922V78H381.047V22.6875ZM399.294 22.6875H413.169V27.375C416.857 25.2812 420.372 23.8125 423.716 22.9688C427.091 22.125 430.388 21.7031 433.607 21.7031C437.826 21.7031 441.732 22.3281 445.326 23.5781C448.919 24.7969 452.029 26.625 454.654 29.0625C457.279 31.5 459.326 34.5469 460.794 38.2031C462.294 41.8281 463.044 46.0312 463.044 50.8125V78H449.216V53.0625C449.216 50.0312 448.779 47.3281 447.904 44.9531C447.06 42.5469 445.826 40.5312 444.201 38.9062C442.607 37.25 440.654 36 438.341 35.1562C436.06 34.2812 433.497 33.8438 430.654 33.8438C429.154 33.8438 427.607 34 426.013 34.3125C424.451 34.625 422.904 35.0781 421.372 35.6719C419.872 36.2344 418.419 36.9531 417.013 37.8281C415.607 38.6719 414.326 39.6406 413.169 40.7344V78H399.294V22.6875ZM464.042 50.1562C464.042 46.4062 464.807 42.8281 466.339 39.4219C467.87 35.9844 470.073 32.9531 472.948 30.3281C475.823 27.7031 479.339 25.6094 483.495 24.0469C487.682 22.4844 492.432 21.7031 497.745 21.7031C503.026 21.7031 507.776 22.5 511.995 24.0938C516.245 25.6562 519.839 27.8125 522.776 30.5625C525.745 33.3125 528.011 36.5469 529.573 40.2656C531.167 43.9844 531.964 47.9688 531.964 52.2188C531.964 52.75 531.948 53.3281 531.917 53.9531C531.917 54.5469 531.886 55.0938 531.823 55.5938H479.511C480.104 57.25 481.057 58.7656 482.37 60.1406C483.714 61.5156 485.386 62.7031 487.386 63.7031C489.386 64.7031 491.698 65.4844 494.323 66.0469C496.948 66.5781 499.854 66.8438 503.042 66.8438C506.229 66.8438 509.401 66.5156 512.557 65.8594C515.714 65.1719 518.729 64.3125 521.604 63.2812L526.292 73.875C524.479 74.7188 522.636 75.4688 520.761 76.125C518.917 76.75 516.979 77.2812 514.948 77.7188C512.948 78.125 510.839 78.4375 508.62 78.6562C506.432 78.875 504.12 78.9844 501.682 78.9844C495.464 78.9844 490.011 78.2344 485.323 76.7344C480.636 75.2344 476.714 73.1875 473.557 70.5938C470.401 68 468.026 64.9531 466.432 61.4531C464.839 57.9531 464.042 54.1875 464.042 50.1562ZM517.245 44.7656C516.745 43.2344 515.964 41.8125 514.901 40.5C513.87 39.1562 512.573 38 511.011 37.0312C509.448 36.0312 507.636 35.25 505.573 34.6875C503.511 34.125 501.245 33.8438 498.776 33.8438C496.151 33.8438 493.761 34.1406 491.604 34.7344C489.448 35.3281 487.557 36.125 485.932 37.125C484.307 38.125 482.948 39.2812 481.854 40.5938C480.792 41.9062 480.011 43.2969 479.511 44.7656H517.245Z" fill="black"/>
<path d="M535.211 4.73438H572.477C578.102 4.73438 582.977 5.32812 587.102 6.51562C591.227 7.67188 594.649 9.35938 597.367 11.5781C600.086 13.7969 602.102 16.5 603.414 19.6875C604.758 22.875 605.43 26.4844 605.43 30.5156C605.43 33.2344 605.102 35.8281 604.446 38.2969C603.789 40.7344 602.774 42.9844 601.399 45.0469C600.055 47.1094 598.352 48.9531 596.289 50.5781C594.227 52.1719 591.805 53.5 589.024 54.5625L604.961 78H586.774L572.992 57.1875H572.571L550.071 57.1406V78H535.211V4.73438ZM572.852 44.2969C575.664 44.2969 578.117 43.9688 580.211 43.3125C582.336 42.6562 584.102 41.7344 585.508 40.5469C586.946 39.3594 588.008 37.9219 588.696 36.2344C589.414 34.5156 589.774 32.6094 589.774 30.5156C589.774 26.4219 588.367 23.2656 585.555 21.0469C582.742 18.7969 578.508 17.6719 572.852 17.6719H550.071V44.2969H572.852ZM605.256 50.1562C605.256 46.4062 606.021 42.8281 607.552 39.4219C609.084 35.9844 611.287 32.9531 614.162 30.3281C617.037 27.7031 620.552 25.6094 624.709 24.0469C628.896 22.4844 633.646 21.7031 638.959 21.7031C644.24 21.7031 648.99 22.5 653.209 24.0938C657.459 25.6562 661.052 27.8125 663.99 30.5625C666.959 33.3125 669.224 36.5469 670.787 40.2656C672.381 43.9844 673.177 47.9688 673.177 52.2188C673.177 52.75 673.162 53.3281 673.131 53.9531C673.131 54.5469 673.099 55.0938 673.037 55.5938H620.724C621.318 57.25 622.271 58.7656 623.584 60.1406C624.927 61.5156 626.599 62.7031 628.599 63.7031C630.599 64.7031 632.912 65.4844 635.537 66.0469C638.162 66.5781 641.068 66.8438 644.256 66.8438C647.443 66.8438 650.615 66.5156 653.771 65.8594C656.927 65.1719 659.943 64.3125 662.818 63.2812L667.506 73.875C665.693 74.7188 663.849 75.4688 661.974 76.125C660.131 76.75 658.193 77.2812 656.162 77.7188C654.162 78.125 652.052 78.4375 649.834 78.6562C647.646 78.875 645.334 78.9844 642.896 78.9844C636.677 78.9844 631.224 78.2344 626.537 76.7344C621.849 75.2344 617.927 73.1875 614.771 70.5938C611.615 68 609.24 64.9531 607.646 61.4531C606.052 57.9531 605.256 54.1875 605.256 50.1562ZM658.459 44.7656C657.959 43.2344 657.177 41.8125 656.115 40.5C655.084 39.1562 653.787 38 652.224 37.0312C650.662 36.0312 648.849 35.25 646.787 34.6875C644.724 34.125 642.459 33.8438 639.99 33.8438C637.365 33.8438 634.974 34.1406 632.818 34.7344C630.662 35.3281 628.771 36.125 627.146 37.125C625.521 38.125 624.162 39.2812 623.068 40.5938C622.006 41.9062 621.224 43.2969 620.724 44.7656H658.459ZM674.691 22.6875H688.566V27.375C692.253 25.2812 695.769 23.8125 699.113 22.9688C702.488 22.125 705.784 21.7031 709.003 21.7031C713.222 21.7031 717.128 22.3281 720.722 23.5781C724.316 24.7969 727.425 26.625 730.05 29.0625C732.675 31.5 734.722 34.5469 736.191 38.2031C737.691 41.8281 738.441 46.0312 738.441 50.8125V78H724.613V53.0625C724.613 50.0312 724.175 47.3281 723.3 44.9531C722.456 42.5469 721.222 40.5312 719.597 38.9062C718.003 37.25 716.05 36 713.738 35.1562C711.456 34.2812 708.894 33.8438 706.05 33.8438C704.55 33.8438 703.003 34 701.409 34.3125C699.847 34.625 698.3 35.0781 696.769 35.6719C695.269 36.2344 693.816 36.9531 692.409 37.8281C691.003 38.6719 689.722 39.6406 688.566 40.7344V78H674.691V22.6875ZM750.407 33.0938H737.047V22.6875H750.407V5.48438H764.282V22.6875H777.641V33.0938H764.282V78H750.407V33.0938Z" fill="#FFCE2D"/>
</svg>
